<svg width="16" height="16" viewBox="0 0 16 16" fill="none" xmlns="http://www.w3.org/2000/svg">
<path d="M5.3335 2.66669L4.3335 3.66669" stroke="#8C8A97" stroke-linecap="round" stroke-linejoin="round"/>
<path d="M4.3335 1.66669L5.3335 2.66669" stroke="#8C8A97" stroke-linecap="round" stroke-linejoin="round"/>
<path d="M4 2.66669C2.89533 2.66669 2 3.56202 2 4.66669" stroke="#8C8A97" stroke-linecap="round" stroke-linejoin="round"/>
<path d="M4 2.66671H5.33333" stroke="#8C8A97" stroke-linecap="round" stroke-linejoin="round"/>
<path d="M10.6665 13.3334L11.6665 12.3334" stroke="#8C8A97" stroke-linecap="round" stroke-linejoin="round"/>
<path d="M11.6665 14.3334L10.6665 13.3334" stroke="#8C8A97" stroke-linecap="round" stroke-linejoin="round"/>
<path d="M12 13.3334C13.1047 13.3334 14 12.438 14 11.3334" stroke="#8C8A97" stroke-linecap="round" stroke-linejoin="round"/>
<path d="M11.9998 13.3333H10.6665" stroke="#8C8A97" stroke-linecap="round" stroke-linejoin="round"/>
<path fill-rule="evenodd" clip-rule="evenodd" d="M6.33317 13.3333C8.34984 13.3333 9.99984 11.6833 9.99984 9.66667C9.99984 7.65 8.34984 6 6.33317 6C4.3165 6 2.6665 7.65 2.6665 9.66667C2.6665 10.4893 2.9445 11.2487 3.4065 11.8613C4.0765 12.7527 5.13917 13.3333 6.33317 13.3333Z" stroke="#8C8A97" stroke-linecap="round" stroke-linejoin="round"/>
<path d="M12.2592 3.74066C13.6852 5.16666 13.6852 7.5 12.2592 8.926C12.1452 9.04 12.0205 9.13533 11.8945 9.228" stroke="#8C8A97" stroke-linecap="round" stroke-linejoin="round"/>
<path d="M12.2592 3.7407C10.8332 2.3147 8.49989 2.3147 7.07389 3.7407C6.96055 3.85404 6.86322 3.97737 6.76855 4.10204" stroke="#8C8A97" stroke-linecap="round" stroke-linejoin="round"/>
</svg>
